# Blender 3.6.2
# www.blender.org
mtllib stump_med.mtl
o Cylinder.002
v 0.007468 0.004742 -0.500000
v 0.007468 1.081869 -0.443539
v 0.136878 0.004742 -0.482963
v 0.122265 1.229345 -0.428426
v 0.257468 0.004742 -0.433013
v 0.229238 1.133070 -0.384116
v 0.361022 0.004742 -0.353553
v 0.321098 1.081869 -0.313629
v 0.440481 0.004742 -0.250000
v 0.391584 1.081869 -0.221769
v 0.490431 0.004742 -0.129410
v 0.435894 1.081869 -0.114796
v 0.507468 0.004742 0.000000
v 0.451007 1.168585 0.000000
v 0.490431 0.004742 0.129410
v 0.435894 1.081869 0.114796
v 0.440481 0.004742 0.250000
v 0.391584 0.976649 0.221769
v 0.361022 0.004742 0.353553
v 0.321098 0.939241 0.313629
v 0.257468 0.004742 0.433013
v 0.229238 0.939241 0.384116
v 0.136878 0.004742 0.482963
v 0.122265 0.939241 0.428426
v 0.007468 0.004742 0.500000
v 0.007468 0.939241 0.443539
v -0.121941 0.004742 0.482963
v -0.107328 0.939241 0.428426
v -0.242532 0.004742 0.433013
v -0.214301 1.033496 0.384116
v -0.346085 0.004742 0.353553
v -0.306161 1.003399 0.313629
v -0.425544 0.004742 0.250000
v -0.376647 1.038890 0.221769
v -0.475494 0.004742 0.129410
v -0.420957 0.939241 0.114796
v -0.492532 0.004742 0.000000
v -0.436070 0.939241 0.000000
v -0.475494 0.004742 -0.129410
v -0.420957 0.939241 -0.114796
v -0.425544 0.004742 -0.250000
v -0.376647 0.972308 -0.221769
v -0.346085 0.004742 -0.353553
v -0.306161 0.939241 -0.313629
v -0.242532 0.004742 -0.433013
v -0.214301 1.190774 -0.384116
v -0.121941 0.004742 -0.482963
v -0.107328 1.106108 -0.428426
v 0.136878 1.229345 -0.482963
v 0.007468 1.081869 -0.500000
v 0.257468 1.133070 -0.433013
v 0.361022 1.081869 -0.353553
v 0.440481 1.081869 -0.250000
v 0.490431 1.081869 -0.129410
v 0.507468 1.168585 0.000000
v 0.490431 1.081869 0.129410
v 0.440481 0.976649 0.250000
v 0.361022 0.939241 0.353553
v 0.257468 0.939241 0.433013
v 0.136878 0.939241 0.482963
v 0.007468 0.939241 0.500000
v -0.121941 0.939241 0.482963
v -0.242532 1.033496 0.433013
v -0.346085 1.003399 0.353553
v -0.425544 1.038890 0.250000
v -0.475494 0.939241 0.129410
v -0.492532 0.939241 0.000000
v -0.475494 0.939241 -0.129410
v -0.425544 0.972308 -0.250000
v -0.346085 0.939241 -0.353553
v -0.242532 1.190774 -0.433013
v -0.121941 1.106108 -0.482963
v 0.122265 0.906799 -0.428426
v 0.007468 0.907049 -0.443539
v 0.229238 0.906799 -0.384116
v 0.321098 0.907049 -0.313629
v 0.391584 0.907049 -0.221769
v 0.435894 0.907049 -0.114796
v 0.451007 0.906799 0.000000
v 0.435894 0.907049 0.114796
v 0.391584 0.906799 0.221769
v 0.321098 0.906799 0.313629
v 0.229238 0.906799 0.384116
v 0.122265 0.906799 0.428426
v 0.007468 0.906799 0.443539
v -0.107328 0.906799 0.428426
v -0.214301 0.906851 0.384116
v -0.306161 0.906911 0.313629
v -0.376647 0.906973 0.221769
v -0.420957 0.906799 0.114796
v -0.436070 0.906799 0.000000
v -0.420957 0.906799 -0.114796
v -0.376647 0.906857 -0.221769
v -0.306161 0.906799 -0.313629
v -0.214301 0.906990 -0.384116
v -0.107328 0.906841 -0.428426
vn -0.0000 -0.0000 -1.0000
vn 0.0167 -0.0000 -0.9999
vn 0.2696 -0.0000 -0.9630
vn 0.2588 -0.0000 -0.9659
vn 0.4774 -0.0000 -0.8787
vn 0.5000 -0.0000 -0.8660
vn 0.7006 -0.0000 -0.7135
vn 0.7071 -0.0000 -0.7071
vn 0.8660 -0.0000 -0.5000
vn 0.9695 -0.0000 -0.2450
vn 0.9659 -0.0000 -0.2588
vn 1.0000 -0.0000 -0.0000
vn 0.9746 -0.0000 0.2240
vn 0.9659 -0.0000 0.2588
vn 0.8778 -0.0000 0.4790
vn 0.8660 -0.0000 0.5000
vn 0.7119 -0.0000 0.7023
vn 0.7071 -0.0000 0.7071
vn 0.5000 -0.0000 0.8660
vn 0.2588 -0.0000 0.9659
vn -0.0000 -0.0000 1.0000
vn -0.2736 -0.0000 0.9619
vn -0.2588 -0.0000 0.9659
vn -0.5120 -0.0000 0.8590
vn -0.5000 -0.0000 0.8660
vn -0.7078 -0.0000 0.7064
vn -0.7071 -0.0000 0.7071
vn -0.8590 -0.0000 0.5121
vn -0.8660 -0.0000 0.5000
vn -0.9617 -0.0000 0.2742
vn -0.9659 -0.0000 0.2588
vn -1.0000 -0.0000 -0.0000
vn -0.9643 -0.0000 -0.2647
vn -0.9659 -0.0000 -0.2588
vn -0.8660 -0.0000 -0.5000
vn -0.6910 -0.0000 -0.7228
vn -0.7071 -0.0000 -0.7071
vn -0.4705 -0.0000 -0.8824
vn -0.5000 -0.0000 -0.8660
vn -0.6999 -0.0000 0.7142
vn -0.2770 -0.0000 -0.9609
vn -0.2588 -0.0000 -0.9659
vn -0.0000 -1.0000 -0.0000
vn -0.7610 0.6410 -0.1002
vn 0.5690 0.7878 0.2357
vn 0.4472 0.8624 0.2374
vn 0.4479 0.8620 0.2374
vn 0.1589 0.9797 0.1219
vn 0.1593 0.9796 0.1222
vn -0.0000 1.0000 -0.0000
vn -0.0416 0.9479 -0.3159
vn -0.0419 0.9472 -0.3179
vn -0.0751 0.8176 -0.5708
vn -0.0751 0.8176 0.5708
vn -0.1641 0.7919 0.5882
vn -0.1643 0.7918 0.5883
vn -0.2199 0.8725 0.4363
vn -0.2202 0.8717 0.4378
vn -0.0906 0.9889 0.1181
vn -0.0907 0.9888 0.1182
vn 0.3149 0.9401 0.1304
vn 0.3171 0.9392 0.1314
vn 0.5615 0.7941 0.2326
vn -0.1883 0.9714 -0.1445
vn -0.0096 0.9992 0.0395
vn 0.1686 0.9609 0.2197
vn -0.2407 0.7774 -0.5811
vn -0.1362 0.9345 -0.3289
vn -0.1373 0.9334 -0.3315
vn -0.0506 0.9912 0.1221
vn -0.0506 0.9912 0.1222
vn 0.0303 0.9994 0.0175
vn 0.1579 0.9658 -0.2057
vn -0.7125 0.4397 0.5467
vn 0.5234 0.8241 -0.2168
vn 0.3734 0.9187 -0.1283
vn 0.3744 0.9183 -0.1289
vn 0.1915 0.9812 -0.0252
vn -0.0001 1.0000 0.0001
vn 0.9641 -0.0000 0.2654
vn -0.9699 -0.0000 0.2436
vn 0.2750 -0.0000 -0.9615
vn 0.6904 -0.0000 0.7234
vn 0.5136 -0.0000 -0.8580
vn -0.9755 -0.0000 -0.2201
vn 0.4678 -0.0000 0.8838
vn 0.7078 -0.0000 -0.7064
vn -0.8790 -0.0000 -0.4768
vn 0.2789 -0.0000 0.9603
vn -0.2708 -0.0000 0.9626
vn -0.0178 -0.0000 0.9998
vn -0.2589 -0.0000 0.9659
vn 0.8580 -0.0000 -0.5136
vn -0.7125 -0.0000 -0.7017
vn -0.4750 -0.0000 0.8800
vn -0.5000 -0.0000 0.8661
vn 0.9613 -0.0000 -0.2757
vt 0.232720 0.846613
vt 0.026481 0.834398
vt 0.015804 0.791780
vt 0.235592 0.807795
vt 0.025779 0.755157
vt 0.238355 0.766007
vt 0.034574 0.713290
vt 0.240715 0.724148
vt 0.037592 0.672253
vt 0.242921 0.682237
vt 0.038722 0.631113
vt 0.244723 0.638920
vt 0.033155 0.591815
vt 0.246102 0.597876
vt 0.043645 0.554964
vt 0.246710 0.554160
vt 0.058187 0.512670
vt 0.246682 0.512169
vt 0.065820 0.470945
vt 0.246380 0.469468
vt 0.066706 0.430504
vt 0.245793 0.426832
vt 0.065517 0.390978
vt 0.244568 0.383125
vt 0.062276 0.350704
vt 0.242488 0.339206
vt 0.056923 0.308751
vt 0.239521 0.295105
vt 0.044301 0.268039
vt 0.236299 0.253414
vt 0.042377 0.229424
vt 0.232412 0.211536
vt 0.037286 0.191039
vt 0.228308 0.169714
vt 0.042032 0.148786
vt 0.223595 0.128379
vt 0.038630 0.107692
vt 0.219006 0.087033
vt 0.031689 0.067189
vt 0.213712 0.043185
vt 0.017006 0.026313
vt 0.207989 0.000132
vt 0.224961 0.999868
vt 0.041697 0.998359
vt 0.042796 0.955165
vt 0.225834 0.962902
vt 0.018627 0.910406
vt 0.227901 0.926045
vt 0.356816 0.339030
vt 0.356816 0.298421
vt 0.393990 0.298421
vt 0.393990 0.339030
vt 0.025165 0.875772
vt 0.230365 0.885280
vt 0.611317 0.355019
vt 0.583720 0.307221
vt 0.569436 0.253909
vt 0.569436 0.198717
vt 0.583720 0.145405
vt 0.611317 0.097607
vt 0.650343 0.058580
vt 0.698141 0.030984
vt 0.751453 0.016699
vt 0.806645 0.016699
vt 0.859957 0.030984
vt 0.907755 0.058580
vt 0.946782 0.097607
vt 0.974378 0.145405
vt 0.988663 0.198717
vt 0.988663 0.253909
vt 0.974378 0.307221
vt 0.946782 0.355019
vt 0.907755 0.394046
vt 0.859957 0.421642
vt 0.806645 0.435927
vt 0.751453 0.435927
vt 0.698141 0.421642
vt 0.650343 0.394046
vt 0.008561 0.835916
vt 0.000132 0.792055
vt 0.007103 0.751155
vt 0.015502 0.710369
vt 0.019493 0.671383
vt 0.019189 0.631925
vt 0.017178 0.590603
vt 0.025382 0.549946
vt 0.040345 0.507811
vt 0.047257 0.468870
vt 0.049106 0.430490
vt 0.047338 0.392164
vt 0.043589 0.352946
vt 0.037231 0.312906
vt 0.027049 0.270316
vt 0.024678 0.231092
vt 0.019523 0.191527
vt 0.023779 0.148410
vt 0.020854 0.110060
vt 0.013517 0.072137
vt 0.000132 0.034987
vt 0.024335 0.995959
vt 0.024642 0.959483
vt 0.004730 0.912140
vt 0.006854 0.874320
vt 0.643532 0.960076
vt 0.590025 0.929184
vt 0.546336 0.885495
vt 0.515444 0.831988
vt 0.499453 0.772308
vt 0.499453 0.710523
vt 0.515444 0.650844
vt 0.546336 0.597337
vt 0.590025 0.553648
vt 0.643532 0.522756
vt 0.703212 0.506764
vt 0.764997 0.506764
vt 0.824676 0.522756
vt 0.878184 0.553648
vt 0.921872 0.597336
vt 0.952764 0.650844
vt 0.968756 0.710523
vt 0.968756 0.772308
vt 0.952765 0.831988
vt 0.921872 0.885495
vt 0.878184 0.929184
vt 0.824676 0.960076
vt 0.764997 0.976067
vt 0.703212 0.976067
vt 0.387145 0.948157
vt 0.387145 0.907549
vt 0.394044 0.907549
vt 0.394044 0.948157
vt 0.387145 0.663898
vt 0.387145 0.623289
vt 0.394044 0.623289
vt 0.394044 0.663898
vt 0.356816 0.379638
vt 0.393990 0.379638
vt 0.380113 0.988766
vt 0.394031 0.988766
vt 0.387145 0.704506
vt 0.394044 0.704506
vt 0.338376 0.420247
vt 0.394044 0.420247
vt 0.387145 0.054770
vt 0.380113 0.014162
vt 0.394031 0.014162
vt 0.394043 0.054770
vt 0.367102 0.745115
vt 0.394032 0.745115
vt 0.356816 0.460855
vt 0.393990 0.460855
vt 0.333657 0.095379
vt 0.394003 0.095379
vt 0.373502 0.785723
vt 0.394020 0.785723
vt 0.379190 0.501464
vt 0.394044 0.501464
vt 0.351661 0.135987
vt 0.394034 0.135987
vt 0.325456 0.217204
vt 0.356816 0.176596
vt 0.393990 0.176596
vt 0.394044 0.217204
vt 0.365955 0.826332
vt 0.394006 0.826332
vt 0.387145 0.542072
vt 0.394044 0.542072
vt 0.345928 0.257813
vt 0.394044 0.257813
vt 0.387145 0.866940
vt 0.394044 0.866940
vt 0.387145 0.582681
vt 0.394044 0.582681
s 1
f 1/1/1 50/2/2 49/3/3 3/4/4
f 3/4/4 49/3/3 51/5/5 5/6/6
f 5/6/6 51/5/5 52/7/7 7/8/8
f 7/8/8 52/7/7 53/9/9 9/10/9
f 9/10/9 53/9/9 54/11/10 11/12/11
f 11/12/11 54/11/10 55/13/12 13/14/12
f 13/14/12 55/13/12 56/15/13 15/16/14
f 15/16/14 56/15/13 57/17/15 17/18/16
f 17/18/16 57/17/15 58/19/17 19/20/18
f 19/20/18 58/19/17 59/21/19 21/22/19
f 21/22/19 59/21/19 60/23/20 23/24/20
f 23/24/20 60/23/20 61/25/21 25/26/21
f 25/26/21 61/25/21 62/27/22 27/28/23
f 27/28/23 62/27/22 63/29/24 29/30/25
f 29/30/25 63/29/24 64/31/26 31/32/27
f 31/32/27 64/31/26 65/33/28 33/34/29
f 33/34/29 65/33/28 66/35/30 35/36/31
f 35/36/31 66/35/30 67/37/32 37/38/32
f 37/38/32 67/37/32 68/39/33 39/40/34
f 39/40/34 68/39/33 69/41/35 41/42/35
f 41/43/35 69/44/35 70/45/36 43/46/37
f 43/46/37 70/45/36 71/47/38 45/48/39
f 10/49/29 8/50/40 76/51/27 77/52/29
f 45/48/39 71/47/38 72/53/41 47/54/42
f 47/54/42 72/53/41 50/2/2 1/1/1
f 1/55/43 3/56/43 5/57/43 7/58/43 9/59/43 11/60/43 13/61/43 15/62/43 17/63/43 19/64/43 21/65/43 23/66/43 25/67/43 27/68/43 29/69/43 31/70/43 33/71/43 35/72/43 37/73/43 39/74/43 41/75/43 43/76/43 45/77/43 47/78/43
f 2/79/44 4/80/44 49/3/44 50/2/44
f 4/80/45 6/81/46 51/5/47 49/3/45
f 6/81/46 8/82/48 52/7/49 51/5/47
f 8/82/48 10/83/50 53/9/50 52/7/49
f 10/83/50 12/84/51 54/11/52 53/9/50
f 12/84/51 14/85/53 55/13/53 54/11/52
f 14/85/54 16/86/55 56/15/56 55/13/54
f 16/86/55 18/87/57 57/17/58 56/15/56
f 18/87/57 20/88/59 58/19/60 57/17/58
f 20/88/59 22/89/50 59/21/50 58/19/60
f 22/89/50 24/90/50 60/23/50 59/21/50
f 24/90/50 26/91/50 61/25/50 60/23/50
f 26/91/50 28/92/61 62/27/62 61/25/50
f 28/92/61 30/93/63 63/29/63 62/27/62
f 30/93/64 32/94/65 64/31/65 63/29/64
f 32/94/65 34/95/66 65/33/66 64/31/65
f 34/95/67 36/96/68 66/35/69 65/33/67
f 36/96/68 38/97/50 67/37/50 66/35/69
f 38/97/50 40/98/70 68/39/71 67/37/50
f 40/98/70 42/99/72 69/41/72 68/39/71
f 42/100/72 44/101/73 70/45/73 69/44/72
f 44/101/74 46/102/74 71/47/74 70/45/74
f 46/102/75 48/103/76 72/53/77 71/47/75
f 48/103/76 2/79/78 50/2/78 72/53/77
f 73/104/79 74/105/79 96/106/79 95/107/79 94/108/79 93/109/79 92/110/79 91/111/79 90/112/79 89/113/79 88/114/79 87/115/79 86/116/79 85/117/79 84/118/79 83/119/79 82/120/79 81/121/79 80/122/79 79/123/79 78/124/79 77/125/79 76/126/79 75/127/79
f 40/128/80 38/129/12 91/130/12 92/131/14
f 26/132/1 24/133/42 84/134/42 85/135/1
f 12/136/81 10/49/29 77/52/29 78/137/31
f 42/138/16 40/128/80 92/131/14 93/139/16
f 28/140/82 26/132/1 85/135/1 86/141/4
f 14/142/32 12/136/81 78/137/31 79/143/32
f 44/144/83 42/145/16 93/146/16 94/147/18
f 30/148/84 28/140/82 86/141/4 87/149/6
f 16/150/85 14/142/32 79/143/32 80/151/34
f 46/152/86 44/144/83 94/147/18 95/153/19
f 32/154/87 30/148/84 87/149/6 88/155/8
f 18/156/88 16/150/85 80/151/34 81/157/35
f 48/158/89 46/152/86 95/153/19 96/159/20
f 4/160/90 2/161/91 74/162/21 73/163/92
f 34/164/93 32/154/87 88/155/8 89/165/9
f 20/166/94 18/156/88 81/157/35 82/167/37
f 2/161/91 48/158/89 96/159/20 74/162/21
f 6/168/95 4/160/90 73/163/92 75/169/96
f 36/170/97 34/164/93 89/165/9 90/171/11
f 22/172/39 20/166/94 82/167/37 83/173/39
f 8/50/40 6/168/95 75/169/96 76/51/27
f 38/129/12 36/170/97 90/171/11 91/130/12
f 24/133/42 22/172/39 83/173/39 84/134/42
